<svg width="112" height="112" viewBox="0 0 112 112" fill="none" xmlns="http://www.w3.org/2000/svg">
<path d="M84 0H28C12.536 0 0 12.536 0 28V84C0 99.464 12.536 112 28 112H84C99.464 112 112 99.464 112 84V28C112 12.536 99.464 0 84 0Z" fill="#0F172A"/>
<path d="M26 36C26 31.58 29.58 28 34 28H78C82.42 28 86 31.58 86 36C86 40.42 82.42 44 78 44H63V86C63 90.42 59.42 94 55 94C50.58 94 47 90.42 47 86V44H34C29.58 44 26 40.42 26 36Z" fill="#0D9488"/>
<path d="M90 29C94.9706 29 99 24.9706 99 20C99 15.0294 94.9706 11 90 11C85.0294 11 81 15.0294 81 20C81 24.9706 85.0294 29 90 29Z" fill="#FB7185"/>
</svg>
